<?xml version="1.0" encoding="utf-8"?>
<!-- Generator: Adobe Illustrator 23.1.1, SVG Export Plug-In . SVG Version: 6.00 Build 0)  -->
<svg version="1.1" id="Capa_1" xmlns="http://www.w3.org/2000/svg" xmlns:xlink="http://www.w3.org/1999/xlink" x="0px" y="0px"
	 viewBox="0 0 990.8 368.5" style="enable-background:new 0 0 990.8 368.5;" xml:space="preserve">
<style type="text/css">
	.st0{fill:url(#SVGID_1_);}
	.st1{fill:url(#SVGID_2_);}
	.st2{fill:url(#SVGID_3_);}
	.st3{fill:#A0E5A5;}
	.st4{fill:#FFFFFF;}
	.st5{fill:url(#SVGID_4_);}
	.st6{fill:#9564A1;}
	.st7{fill:#98D59C;}
</style>
<g>
	<g>
		<linearGradient id="SVGID_1_" gradientUnits="userSpaceOnUse" x1="142.7081" y1="284.8503" x2="142.7081" y2="148.166">
			<stop  offset="0" style="stop-color:#78AF7A"/>
			<stop  offset="0.9995" style="stop-color:#96D69A"/>
		</linearGradient>
		<path class="st0" d="M285.2,295l-30.1-74.6c16.6-22.9,26.4-51.1,26.4-81.5C281.6,62.2,219.4,0,142.7,0S3.8,62.2,3.8,138.9
			c0,30.5,9.8,58.6,26.4,81.5L0.2,295c-0.3,0.9-0.3,1.9,0.2,2.8L9,316c0.9,1.9,3.2,2.7,5,1.7l17.9-9.1c0.9-0.4,1.5-1.2,1.8-2.1
			l17.9-62.8c2.2,1.9,4.4,3.7,6.7,5.5L41.5,310c-0.2,0.9,0,1.9,0.5,2.8l10.6,17.1c1.1,1.8,3.4,2.3,5.2,1.1l16.8-11
			c0.8-0.5,1.4-1.4,1.6-2.3l8.7-52.5c2.1,1,4.3,1.9,6.5,2.8l-8.5,53.8c-0.1,1,0.2,1.9,0.8,2.7l12.5,15.7c1.3,1.6,3.7,1.9,5.3,0.5
			l15.4-12.9c0.7-0.6,1.2-1.5,1.3-2.5l2.5-49.4c2.6,0.4,5.1,0.8,7.7,1l-3.2,73.4c0,1,0.4,1.9,1.1,2.6l14,14.4c1.5,1.5,3.9,1.5,5.3,0
			l14-14.4c0.7-0.7,1.1-1.6,1.1-2.6l-3.2-73.4c2.5-0.3,4.9-0.6,7.4-1l2.5,49.4c0.1,1,0.6,1.8,1.3,2.5l15.4,12.9
			c1.6,1.3,4,1.1,5.3-0.5l12.5-15.7c0.6-0.8,0.9-1.7,0.8-2.7l-8.5-53.8c2.2-0.9,4.4-1.8,6.5-2.8l8.7,52.5c0.2,0.9,0.8,1.8,1.6,2.3
			l16.8,11c1.7,1.1,4.1,0.6,5.2-1.1l10.6-17.1c0.5-0.8,0.7-1.8,0.5-2.8l-16.8-60.8c2.3-1.8,4.5-3.6,6.7-5.5l17.9,62.8
			c0.3,0.9,1,1.7,1.8,2.1l17.9,9.1c1.9,0.9,4.1,0.2,5-1.7l8.6-18.1C285.5,296.9,285.5,295.9,285.2,295z"/>
		<g>
			<g>
				<linearGradient id="SVGID_2_" gradientUnits="userSpaceOnUse" x1="142.7081" y1="253.2719" x2="142.7081" y2="39.115">
					<stop  offset="0" style="stop-color:#78AF7A"/>
					<stop  offset="0.9995" style="stop-color:#96D69A"/>
				</linearGradient>
				<path class="st1" d="M142.7,253.3c-30.9,0-60-12-81.9-33.9c-21.9-21.9-33.9-51-33.9-81.9c0-30.9,12-60,33.9-81.9
					c21.9-21.9,51-33.9,81.9-33.9s60,12,81.9,33.9c21.9,21.9,33.9,51,33.9,81.9c0,30.9-12,60-33.9,81.9
					C202.7,241.2,173.6,253.3,142.7,253.3z"/>
				<g>
					<linearGradient id="SVGID_3_" gradientUnits="userSpaceOnUse" x1="142.7082" y1="253.2886" x2="142.7082" y2="39.1318">
						<stop  offset="0" style="stop-color:#78AF7A"/>
						<stop  offset="0.9995" style="stop-color:#96D69A"/>
					</linearGradient>
					<path class="st2" d="M185.9,137.5c0,23.9-19.4,43.2-43.2,43.2c-23.9,0-43.2-19.4-43.2-43.2c0-23.9,19.4-43.2,43.2-43.2
						C166.6,94.2,185.9,113.6,185.9,137.5z"/>
					<circle class="st3" cx="142.7" cy="137.5" r="14.4"/>
				</g>
				<path class="st4" d="M208.9,173.1c-2.8-2.8-7.4-2.8-10.2,0l-5.1,5.1l-10.6-10.6c5.1-6.8,8.3-14.6,9.5-23h29.5v7.2
					c0,4,3.2,7.2,7.2,7.2s7.2-3.2,7.2-7.2v-28.8c0-4-3.2-7.2-7.2-7.2s-7.2,3.2-7.2,7.2v7.2h-29.5c-1.2-8.4-4.4-16.2-9.5-23
					l10.6-10.6l5.1,5.1c2.8,2.8,7.4,2.8,10.2,0c2.8-2.8,2.8-7.4,0-10.2l-20.4-20.4c-2.8-2.8-7.4-2.8-10.2,0c-2.8,2.8-2.8,7.4,0,10.2
					l5.1,5.1l-10.6,10.6c-6.8-5.1-14.6-8.3-23-9.5V58.1h7.2c4,0,7.2-3.2,7.2-7.2s-3.2-7.2-7.2-7.2h-28.8c-4,0-7.2,3.2-7.2,7.2
					s3.2,7.2,7.2,7.2h7.2v29.5c-8.4,1.2-16.2,4.4-23,9.5l-10.6-10.6l5.1-5.1c2.8-2.8,2.8-7.4,0-10.2c-2.8-2.8-7.4-2.8-10.2,0
					L76.5,91.6c-2.8,2.8-2.8,7.4,0,10.2c2.8,2.8,7.4,2.8,10.2,0l5.1-5.1l10.6,10.6c-5.1,6.8-8.3,14.6-9.5,23H63.3v-7.2
					c0-4-3.2-7.2-7.2-7.2s-7.2,3.2-7.2,7.2v28.8c0,4,3.2,7.2,7.2,7.2s7.2-3.2,7.2-7.2v-7.2h29.5c1.2,8.4,4.4,16.2,9.5,23l-10.6,10.6
					l-5.1-5.1c-2.8-2.8-7.4-2.8-10.2,0c-2.8,2.8-2.8,7.4,0,10.2l20.4,20.4c2.8,2.8,7.4,2.8,10.2,0c2.8-2.8,2.8-7.4,0-10.2l-5.1-5.1
					l10.6-10.6c6.8,5.1,14.6,8.3,23,9.5v29.5h-7.2c-4,0-7.2,3.2-7.2,7.2s3.2,7.2,7.2,7.2h28.8c4,0,7.2-3.2,7.2-7.2s-3.2-7.2-7.2-7.2
					h-7.2v-29.5c8.4-1.2,16.2-4.4,23-9.5l10.6,10.6l-5.1,5.1c-2.8,2.8-2.8,7.4,0,10.2c2.8,2.8,7.4,2.8,10.2,0l20.4-20.4
					C211.8,180.5,211.8,176,208.9,173.1L208.9,173.1z M142.7,173.5c-19.9,0-36-16.1-36-36c0-19.9,16.1-36,36-36
					c19.9,0,36,16.1,36,36C178.7,157.4,162.7,173.5,142.7,173.5z"/>
				<path class="st4" d="M142.7,115.9c-11.9,0-21.6,9.7-21.6,21.6c0,11.9,9.7,21.6,21.6,21.6c11.9,0,21.6-9.7,21.6-21.6
					C164.3,125.6,154.6,115.9,142.7,115.9z"/>
			</g>
			<linearGradient id="SVGID_4_" gradientUnits="userSpaceOnUse" x1="142.7081" y1="260.5437" x2="142.7081" y2="14.3975">
				<stop  offset="0" style="stop-color:#9564A1"/>
				<stop  offset="0.9979" style="stop-color:#D967CB"/>
			</linearGradient>
			<path class="st5" d="M142.7,14.4c-68,0-123.1,55.1-123.1,123.1c0,68,55.1,123.1,123.1,123.1s123.1-55.1,123.1-123.1
				C265.8,69.5,210.7,14.4,142.7,14.4z M38,137.5c0-14.1,2.8-27.9,8.2-40.8C51.5,84.2,59,73,68.6,63.4c9.6-9.6,20.8-17.2,33.3-22.5
				c12.9-5.5,26.6-8.2,40.8-8.2s27.9,2.8,40.8,8.2c8.4,3.6,16.3,8.2,23.5,13.8l-147,147c-5.6-7.2-10.2-15-13.8-23.5
				C40.7,165.3,38,151.6,38,137.5z M216.8,211.5c-9.6,9.6-20.8,17.2-33.3,22.5c-12.9,5.5-26.6,8.2-40.8,8.2s-27.9-2.8-40.8-8.2
				c-8.8-3.7-16.9-8.6-24.3-14.5L224.8,72.4c5.9,7.4,10.7,15.5,14.5,24.3c5.5,12.9,8.2,26.6,8.2,40.8c0,14.1-2.8,27.9-8.2,40.8
				C234,190.7,226.4,201.9,216.8,211.5z"/>
		</g>
	</g>
	<g>
		<g>
			<path class="st6" d="M396.1,208h-38.3l-7.8,23.3h-16.2l36.7-104.2h12.8l36.7,104.2H404L396.1,208z M391.8,194l-14.6-45.6h-0.3
				L362.3,194H391.8z"/>
			<path class="st6" d="M432.4,157.1h14.4v7.7c4.8-5.5,11-8.4,18.5-8.6c8.8,0.2,15.2,3.5,19.3,9.7c2,2.3,3.3,5.4,4.1,9.2
				c0.7,3.8,1,10.1,1,19.2c0,8.8-0.3,15.1-1,18.9c-0.7,3.8-2.1,6.9-4.1,9.4c-2,2.9-4.6,5.1-7.8,6.9c-3.2,1.8-7,2.7-11.5,2.8
				c-3.7,0-7-0.8-9.9-2.5c-3.1-1.5-6-3.6-8.6-6.3v37.9h-14.4V157.1z M461,217.3c3.4,0,6.1-0.7,8.1-2c2-1.4,3.4-3.2,4.2-5.3
				c0.9-2.2,1.5-4.7,1.9-7.5c0.1-2.7,0.1-5.4,0.1-8.2c0-3,0-5.9-0.1-8.7c-0.3-2.8-0.9-5.3-1.9-7.5c-0.8-2.2-2.2-4-4.2-5.3
				c-2-1.2-4.7-1.8-8.1-1.8c-3.2,0-5.8,0.7-7.7,2.1c-2,1.4-3.4,3.2-4.4,5.5c-0.9,2.2-1.5,4.7-1.7,7.3c-0.3,2.8-0.4,5.6-0.4,8.4
				c0,2.6,0.1,5.3,0.4,7.9c0.3,2.8,0.9,5.3,1.7,7.5c0.9,2.2,2.4,4.1,4.4,5.4C455.2,216.6,457.8,217.3,461,217.3z"/>
			<path class="st6" d="M508.4,157.1h14.4v7.7c4.8-5.5,11-8.4,18.5-8.6c8.8,0.2,15.2,3.5,19.3,9.7c2,2.3,3.3,5.4,4.1,9.2
				c0.7,3.8,1,10.1,1,19.2c0,8.8-0.3,15.1-1,18.9c-0.7,3.8-2.1,6.9-4.1,9.4c-2,2.9-4.6,5.1-7.8,6.9c-3.2,1.8-7,2.7-11.5,2.8
				c-3.7,0-7-0.8-9.9-2.5c-3.1-1.5-6-3.6-8.6-6.3v37.9h-14.4V157.1z M537,217.3c3.4,0,6.1-0.7,8.1-2c2-1.4,3.4-3.2,4.2-5.3
				c0.9-2.2,1.5-4.7,1.9-7.5c0.1-2.7,0.1-5.4,0.1-8.2c0-3,0-5.9-0.1-8.7c-0.3-2.8-0.9-5.3-1.9-7.5c-0.8-2.2-2.2-4-4.2-5.3
				c-2-1.2-4.7-1.8-8.1-1.8c-3.2,0-5.8,0.7-7.7,2.1c-2,1.4-3.4,3.2-4.4,5.5c-0.9,2.2-1.5,4.7-1.7,7.3c-0.3,2.8-0.4,5.6-0.4,8.4
				c0,2.6,0.1,5.3,0.4,7.9c0.3,2.8,0.9,5.3,1.7,7.5c0.9,2.2,2.4,4.1,4.4,5.4C531.2,216.6,533.7,217.3,537,217.3z"/>
			<path class="st7" d="M584.3,127.1h14.4v85.1c0,3.4,1.8,5.1,5.4,5.1h5v14h-6.4c-5.3,0-9.6-1.4-13-4.1c-3.6-2.8-5.4-7.4-5.4-13.9
				V127.1z"/>
			<path class="st7" d="M659.8,224.7h-0.3c-1.3,2.5-3.4,4.4-6.2,5.6c-2.8,1.2-6.6,1.9-11.5,1.9c-8-0.1-14.2-2.3-18.5-6.6
				c-4.6-4.2-6.8-9.5-6.8-16.1c0-6.2,2-11.4,5.9-15.5c4-4.2,9.8-6.3,17.4-6.4h20v-7.8c0.1-6.6-4.8-9.7-14.7-9.6
				c-3.6,0-6.4,0.4-8.5,1.1c-2.2,0.9-3.9,2.4-5.1,4.6l-11.4-8.9c5.5-7.4,13.6-11,24.3-10.8c9-0.1,16.3,1.7,21.6,5.3
				c5.4,3.7,8.1,10.1,8.2,19.2v50.7h-14.4V224.7z M659.8,199.8h-17.3c-8.4,0.2-12.6,3.2-12.5,8.9c0,2.5,1.1,4.7,3.3,6.4
				c2.1,2,5.5,2.9,10.3,2.9c6.1,0.1,10.3-0.6,12.8-2.2c2.3-1.6,3.4-5.1,3.4-10.7V199.8z"/>
			<path class="st7" d="M748.1,219.3c-3.1,3.7-6.8,6.7-11.1,9c-4.2,2.4-9.2,3.7-14.7,3.8c-8.5,0-15.9-3-22.3-8.9
				c-6.6-6-10-15.6-10.2-28.9c0.2-13.5,3.6-23.2,10.2-29.3c6.4-6,13.9-8.9,22.3-8.8c5.6,0.1,10.5,1.3,14.7,3.6
				c4.2,2.3,7.9,5.4,11.1,9.3l-10.7,9.8c-3.6-5-8.5-7.6-14.6-7.8c-12.3-0.2-18.5,7.6-18.7,23.2c0.2,15.6,6.4,23.3,18.7,23
				c6.1-0.1,11-2.7,14.6-7.7L748.1,219.3z"/>
			<path class="st7" d="M756.6,194.1c0-7.8,0.6-13.8,1.9-18c1.3-4.1,3.3-7.6,6-10.4c2-2.5,4.8-4.7,8.3-6.6c3.5-1.8,8-2.8,13.5-2.9
				c5.7,0.1,10.3,1.1,13.8,2.9c3.5,2,6.1,4.2,8,6.6c2.9,2.8,4.9,6.3,6.1,10.4c1.2,4.2,1.7,10.2,1.7,18c0,7.8-0.6,13.8-1.7,17.9
				c-1.2,4.1-3.2,7.6-6.1,10.6c-0.9,1.1-2.1,2.2-3.4,3.2c-1.2,1.2-2.7,2.2-4.6,3.1c-3.5,2-8.1,3.1-13.8,3.2
				c-5.5-0.1-10-1.2-13.5-3.2c-3.6-1.9-6.3-4-8.3-6.3c-2.7-3-4.7-6.5-6-10.6C757.2,207.9,756.6,201.9,756.6,194.1z M801.4,194.3
				c0-5.3-0.2-9.2-0.7-11.6c-0.5-2.3-1.4-4.4-2.8-6.2c-1.1-1.7-2.6-3-4.7-3.9c-2-1-4.3-1.5-6.9-1.5c-2.5,0-4.7,0.5-6.8,1.5
				c-2,1-3.6,2.3-4.9,3.9c-1.2,1.8-2.2,3.8-2.7,6.2c-0.6,2.4-0.8,6.3-0.8,11.5c0,5.2,0.3,8.9,0.8,11.3c0.6,2.4,1.5,4.6,2.7,6.5
				c1.2,1.4,2.9,2.7,4.9,3.8c2.1,1.1,4.3,1.6,6.8,1.6c2.6,0,4.9-0.5,6.9-1.6c2.1-1.1,3.7-2.4,4.7-3.8c1.4-1.9,2.4-4,2.8-6.5
				C801.2,203.1,801.4,199.3,801.4,194.3z"/>
			<path class="st7" d="M823.1,157.1h15.3l16.9,52h0.3l16.8-52h15.4l-26.3,74.2h-11.9L823.1,157.1z"/>
			<path class="st7" d="M898.7,127.1h14.4v14.9h-14.4V127.1z M898.7,157.1h14.4v74.2h-14.4V157.1z"/>
			<path class="st7" d="M976.4,223.5c-4.8,5.5-11,8.4-18.6,8.6c-4.3-0.1-8-1-11.1-2.8c-3.2-1.7-5.9-4-8.1-6.9
				c-2-2.3-3.3-5.5-3.9-9.5c-0.8-3.8-1.2-10.1-1.2-18.9c0-8.9,0.4-15.3,1.2-19c0.6-3.8,2-6.9,3.9-9.2c4.1-6.2,10.5-9.4,19.2-9.7
				c3.7,0,7.1,0.8,10.2,2.3c2.9,1.7,5.7,3.8,8.4,6.4v-37.8h14.4v104.2h-14.4V223.5z M962.2,171c-3.4,0-6,0.6-7.8,1.8
				c-2,1.3-3.4,3.1-4.4,5.3c-0.9,2.2-1.5,4.7-1.7,7.3c-0.3,2.8-0.4,5.7-0.4,8.7c0,2.8,0.1,5.6,0.4,8.2c0.3,2.8,0.9,5.4,1.7,7.6
				c0.9,2.2,2.4,3.9,4.4,5.3c1.8,1.3,4.4,2,7.8,2c3.4,0,6.1-0.7,8.1-2.2c2-1.4,3.3-3.2,4.1-5.4c0.9-2.2,1.5-4.8,1.9-7.5
				c0.1-2.7,0.1-5.4,0.1-8c0-2.9,0-5.6-0.1-8.2c-0.3-2.6-0.9-5.1-1.9-7.3c-0.7-2.2-2.1-4.1-4.1-5.5C968.3,171.7,965.6,171,962.2,171
				z"/>
		</g>
	</g>
</g>
</svg>
